<svg width="330" height="94" viewBox="0 0 330 94" fill="none" xmlns="http://www.w3.org/2000/svg">
<path d="M124.472 63.768C121.432 63.768 118.76 63.064 116.456 61.656C114.152 60.216 112.36 58.168 111.08 55.512C109.8 52.856 109.16 49.688 109.16 46.008C109.16 42.328 109.8 39.16 111.08 36.504C112.36 33.816 114.152 31.752 116.456 30.312C118.76 28.872 121.432 28.152 124.472 28.152C128.6 28.152 131.8 29.192 134.072 31.272C136.344 33.352 137.832 36.184 138.536 39.768L134.168 40.056C133.688 37.624 132.664 35.704 131.096 34.296C129.528 32.888 127.32 32.184 124.472 32.184C122.296 32.184 120.376 32.744 118.712 33.864C117.08 34.952 115.8 36.536 114.872 38.616C113.944 40.664 113.48 43.128 113.48 46.008C113.48 48.888 113.944 51.352 114.872 53.4C115.8 55.448 117.08 57.016 118.712 58.104C120.376 59.192 122.296 59.736 124.472 59.736C127.448 59.736 129.752 58.968 131.384 57.432C133.016 55.864 134.04 53.752 134.456 51.096L138.824 51.384C138.408 53.848 137.592 56.008 136.376 57.864C135.16 59.72 133.544 61.176 131.528 62.232C129.544 63.256 127.192 63.768 124.472 63.768ZM154.151 63.576C151.815 63.576 149.767 63.032 148.007 61.944C146.247 60.856 144.887 59.32 143.927 57.336C142.967 55.32 142.487 52.968 142.487 50.28C142.487 47.56 142.967 45.208 143.927 43.224C144.887 41.24 146.247 39.704 148.007 38.616C149.767 37.528 151.815 36.984 154.151 36.984C156.487 36.984 158.519 37.528 160.247 38.616C162.007 39.704 163.367 41.24 164.327 43.224C165.287 45.208 165.767 47.56 165.767 50.28C165.767 52.968 165.287 55.32 164.327 57.336C163.367 59.32 162.007 60.856 160.247 61.944C158.519 63.032 156.487 63.576 154.151 63.576ZM154.151 59.736C156.487 59.736 158.295 58.904 159.575 57.24C160.887 55.544 161.543 53.224 161.543 50.28C161.543 47.336 160.887 45.032 159.575 43.368C158.295 41.672 156.487 40.824 154.151 40.824C151.815 40.824 149.991 41.672 148.679 43.368C147.367 45.032 146.711 47.336 146.711 50.28C146.711 53.224 147.367 55.544 148.679 57.24C149.991 58.904 151.815 59.736 154.151 59.736ZM171.262 63V37.56H174.814L175.006 43.992L174.622 43.848C174.942 41.672 175.63 40.088 176.686 39.096C177.774 38.072 179.214 37.56 181.006 37.56H183.502V41.4H181.054C179.774 41.4 178.702 41.64 177.838 42.12C177.006 42.568 176.366 43.256 175.918 44.184C175.502 45.08 175.294 46.232 175.294 47.64V63H171.262ZM197.464 63.576C195.064 63.576 192.984 63.032 191.224 61.944C189.496 60.856 188.152 59.32 187.192 57.336C186.264 55.32 185.8 52.968 185.8 50.28C185.8 47.592 186.264 45.256 187.192 43.272C188.152 41.288 189.48 39.752 191.176 38.664C192.904 37.544 194.936 36.984 197.272 36.984C199.48 36.984 201.432 37.512 203.128 38.568C204.824 39.592 206.136 41.096 207.064 43.08C208.024 45.064 208.504 47.48 208.504 50.328V51.528H190.023C190.184 54.248 190.904 56.296 192.184 57.672C193.496 59.048 195.256 59.736 197.464 59.736C199.128 59.736 200.488 59.352 201.544 58.584C202.632 57.784 203.384 56.744 203.8 55.464L208.12 55.8C207.448 58.072 206.168 59.944 204.28 61.416C202.424 62.856 200.152 63.576 197.464 63.576ZM190.023 47.976H204.088C203.896 45.512 203.176 43.704 201.928 42.552C200.712 41.4 199.16 40.824 197.272 40.824C195.32 40.824 193.704 41.432 192.424 42.648C191.176 43.832 190.376 45.608 190.023 47.976ZM240.066 63.768C237.026 63.768 234.354 63.064 232.05 61.656C229.746 60.216 227.954 58.168 226.674 55.512C225.394 52.856 224.754 49.688 224.754 46.008C224.754 42.328 225.394 39.16 226.674 36.504C227.954 33.816 229.746 31.752 232.05 30.312C234.354 28.872 237.026 28.152 240.066 28.152C244.194 28.152 247.394 29.192 249.666 31.272C251.938 33.352 253.426 36.184 254.13 39.768L249.762 40.056C249.282 37.624 248.258 35.704 246.69 34.296C245.122 32.888 242.914 32.184 240.066 32.184C237.89 32.184 235.97 32.744 234.306 33.864C232.674 34.952 231.394 36.536 230.466 38.616C229.538 40.664 229.074 43.128 229.074 46.008C229.074 48.888 229.538 51.352 230.466 53.4C231.394 55.448 232.674 57.016 234.306 58.104C235.97 59.192 237.89 59.736 240.066 59.736C243.042 59.736 245.346 58.968 246.978 57.432C248.61 55.864 249.634 53.752 250.05 51.096L254.418 51.384C254.002 53.848 253.186 56.008 251.97 57.864C250.754 59.72 249.138 61.176 247.122 62.232C245.138 63.256 242.786 63.768 240.066 63.768ZM266.86 63.576C264.236 63.576 262.14 62.968 260.572 61.752C259.036 60.536 258.268 58.84 258.268 56.664C258.268 54.488 258.908 52.776 260.188 51.528C261.468 50.28 263.5 49.4 266.284 48.888L275.308 47.208C275.308 45.064 274.796 43.464 273.772 42.408C272.78 41.352 271.276 40.824 269.26 40.824C267.5 40.824 266.108 41.224 265.084 42.024C264.06 42.792 263.356 43.912 262.972 45.384L258.7 45.048C259.18 42.648 260.332 40.712 262.156 39.24C264.012 37.736 266.38 36.984 269.26 36.984C272.524 36.984 275.02 37.912 276.748 39.768C278.476 41.592 279.34 44.12 279.34 47.352V57.864C279.34 58.44 279.436 58.856 279.628 59.112C279.852 59.336 280.204 59.448 280.684 59.448H281.692V63C281.564 63.032 281.356 63.048 281.068 63.048C280.78 63.08 280.476 63.096 280.156 63.096C279.004 63.096 278.06 62.92 277.324 62.568C276.62 62.184 276.108 61.608 275.788 60.84C275.468 60.04 275.308 59 275.308 57.72L275.788 57.816C275.564 58.904 275.02 59.896 274.156 60.792C273.292 61.656 272.22 62.344 270.94 62.856C269.66 63.336 268.3 63.576 266.86 63.576ZM267.244 60.024C268.94 60.024 270.38 59.704 271.564 59.064C272.78 58.392 273.708 57.496 274.348 56.376C274.988 55.224 275.308 53.944 275.308 52.536V50.712L267.052 52.248C265.324 52.568 264.124 53.064 263.452 53.736C262.812 54.376 262.492 55.224 262.492 56.28C262.492 57.464 262.908 58.392 263.74 59.064C264.604 59.704 265.772 60.024 267.244 60.024ZM295.417 63.576C293.145 63.576 291.209 63.208 289.609 62.472C288.041 61.736 286.809 60.728 285.913 59.448C285.049 58.136 284.553 56.648 284.425 54.984L288.648 54.696C288.905 56.232 289.561 57.464 290.617 58.392C291.673 59.288 293.273 59.736 295.417 59.736C297.145 59.736 298.521 59.464 299.545 58.92C300.601 58.344 301.129 57.432 301.129 56.184C301.129 55.512 300.969 54.952 300.649 54.504C300.329 54.056 299.705 53.672 298.777 53.352C297.849 53 296.473 52.664 294.648 52.344C292.217 51.896 290.297 51.352 288.889 50.712C287.513 50.04 286.521 49.224 285.913 48.264C285.337 47.272 285.049 46.104 285.049 44.76C285.049 42.488 285.881 40.632 287.545 39.192C289.209 37.72 291.577 36.984 294.648 36.984C296.729 36.984 298.473 37.368 299.881 38.136C301.321 38.872 302.441 39.864 303.241 41.112C304.073 42.328 304.617 43.672 304.873 45.144L300.649 45.432C300.457 44.536 300.105 43.752 299.593 43.08C299.081 42.376 298.409 41.832 297.577 41.448C296.745 41.032 295.753 40.824 294.601 40.824C292.777 40.824 291.433 41.176 290.569 41.88C289.705 42.584 289.273 43.48 289.273 44.568C289.273 45.4 289.465 46.088 289.849 46.632C290.265 47.144 290.921 47.576 291.817 47.928C292.713 48.248 293.913 48.536 295.417 48.792C298.009 49.24 300.025 49.784 301.465 50.424C302.905 51.064 303.913 51.848 304.489 52.776C305.065 53.704 305.353 54.84 305.353 56.184C305.353 57.752 304.905 59.096 304.009 60.216C303.145 61.304 301.961 62.136 300.457 62.712C298.985 63.288 297.305 63.576 295.417 63.576ZM319.183 63C316.879 63 315.167 62.472 314.047 61.416C312.959 60.36 312.415 58.712 312.415 56.472V31.608H316.447V56.376C316.447 57.528 316.703 58.328 317.215 58.776C317.727 59.224 318.511 59.448 319.567 59.448H323.215V63H319.183ZM308.671 41.112V37.56H323.215V41.112H308.671Z" fill="white"/>
<path d="M63.6341 30.3973C68.0325 34.8032 70.5028 40.7744 70.5028 47C70.5028 53.2256 68.0325 59.1968 63.6341 63.6028" stroke="white" stroke-width="6" stroke-linecap="round" stroke-linejoin="round"/>
<path d="M74.7104 19.3209C82.0458 26.6648 86.1661 36.6202 86.1661 47C86.1661 57.3798 82.0458 67.3352 74.7104 74.6791" stroke="white" stroke-width="6" stroke-linecap="round" stroke-linejoin="round"/>
<path d="M19.2896 74.6791C11.9541 67.3352 7.83385 57.3798 7.83385 47C7.83385 36.6202 11.9541 26.6648 19.2896 19.3209" stroke="white" stroke-width="6" stroke-linecap="round" stroke-linejoin="round"/>
<path d="M30.3659 63.6028C25.9675 59.1968 23.4972 53.2256 23.4972 47C23.4972 40.7744 25.9675 34.8032 30.3659 30.3973" stroke="white" stroke-width="6" stroke-linecap="round" stroke-linejoin="round"/>
<path d="M47 54.8334C51.3262 54.8334 54.8333 51.3263 54.8333 47C54.8333 42.6738 51.3262 39.1667 47 39.1667C42.6738 39.1667 39.1667 42.6738 39.1667 47C39.1667 51.3263 42.6738 54.8334 47 54.8334Z" stroke="white" stroke-width="6" stroke-linecap="round" stroke-linejoin="round"/>
</svg>
